<?xml version="1.0" standalone="no"?>
<!DOCTYPE svg PUBLIC "-//W3C//DTD SVG 20010904//EN"
 "http://www.w3.org/TR/2001/REC-SVG-20010904/DTD/svg10.dtd">
<svg version="1.0" xmlns="http://www.w3.org/2000/svg"
 width="500.000000pt" height="500.000000pt" viewBox="0 0 500.000000 500.000000"
 preserveAspectRatio="xMidYMid meet">
<metadata>
Created by potrace 1.16, written by Peter Selinger 2001-2019
</metadata>
<g transform="translate(0.000000,500.000000) scale(0.100000,-0.100000)"
fill="#fff" stroke="none">
<path d="M2423 4868 c1 -6 -4 -13 -12 -16 -9 -3 -11 0 -6 8 6 9 3 9 -14 1 -24
-13 -28 -23 -6 -15 35 14 9 -8 -70 -60 -182 -119 -296 -228 -355 -338 -17 -32
-33 -58 -36 -58 -2 0 -17 19 -34 42 -25 34 -30 50 -30 99 0 32 5 70 10 86 8
23 -1 16 -49 -33 -123 -129 -157 -279 -94 -412 23 -49 5 -63 -93 -71 l-79 -7
48 -31 48 -31 -38 -13 c-23 -7 -32 -14 -23 -17 62 -20 62 -16 4 -75 -86 -89
-106 -203 -63 -363 75 -279 85 -371 48 -431 -21 -34 -22 -41 -12 -171 l9 -135
48 -44 c36 -32 51 -54 58 -86 5 -23 20 -53 32 -67 15 -16 30 -56 43 -113 l20
-87 -26 -6 c-173 -39 -321 -90 -407 -140 -37 -22 -43 -31 -63 -99 l-22 -75
-59 -26 c-53 -24 -60 -31 -84 -84 -32 -70 -62 -205 -71 -316 l-7 -80 -97 -47
c-179 -86 -526 -313 -605 -396 -37 -39 -31 -72 29 -172 l45 -74 -41 45 c-35
38 -38 40 -18 10 46 -67 37 -100 -111 -395 -42 -82 -87 -188 -102 -235 -61
-196 -87 -287 -91 -312 l-4 -28 2478 0 2479 0 0 53 c0 35 -6 61 -20 82 -11 17
-32 53 -45 80 -31 63 -77 118 -158 192 -25 22 -57 58 -71 80 -35 53 -76 166
-76 211 -1 33 -14 100 -39 197 -6 24 -2 38 19 70 41 61 70 122 70 148 0 13
-14 36 -32 54 -104 97 -506 354 -643 409 l-50 20 -8 75 c-14 130 -44 264 -72
327 -27 61 -39 71 -117 101 -22 8 -30 23 -49 86 -21 69 -27 79 -64 100 -65 38
-233 100 -325 120 -47 10 -89 21 -93 25 -4 4 0 44 9 91 13 63 24 92 45 117 19
21 29 44 29 64 0 25 10 41 51 77 50 45 51 47 60 121 14 130 11 209 -10 239
-27 38 -28 80 -3 128 12 22 25 60 28 83 6 40 8 41 19 21 11 -21 12 -21 26 -5
10 13 13 42 11 116 -2 91 -1 98 17 98 11 0 43 -23 72 -50 28 -28 53 -49 56
-47 10 10 -18 129 -40 174 -46 89 -3 96 83 13 42 -41 50 -45 55 -30 12 37 -23
124 -77 192 -21 27 -26 39 -16 42 7 3 31 10 53 17 65 19 67 24 31 79 -87 138
-120 174 -183 206 -35 17 -66 33 -69 37 -3 3 23 20 57 38 66 33 118 68 103 70
-5 0 0 4 11 9 20 8 20 9 -1 9 -11 1 -66 23 -122 51 -56 27 -102 47 -102 45 0
-3 39 -25 88 -50 93 -49 84 -49 -43 -4 -88 32 -139 68 -169 119 -20 35 -11 34
34 -4 l25 -21 -25 30 c-14 17 -33 46 -44 66 -10 20 -30 42 -44 48 -27 12 -26
12 4 -16 16 -15 23 -23 14 -16 -42 32 -97 45 -193 46 l-98 0 29 31 c15 17 36
44 46 60 14 23 20 26 28 15 7 -10 8 -9 4 6 -3 11 -1 27 5 35 9 13 10 12 5 -3
-3 -11 -2 -16 4 -12 15 9 12 38 -3 32 -7 -2 -39 -10 -71 -17 -35 -7 -54 -15
-47 -20 19 -11 -55 -20 -234 -30 -156 -8 -215 -19 -287 -56 l-28 -15 0 54 c0
29 6 76 13 104 12 43 12 53 1 57 -8 3 -13 0 -11 -6z m-105 -1290 c11 -13 25
-35 31 -50 16 -43 31 -218 31 -370 l0 -140 -29 7 c-16 3 -60 20 -98 36 -58 26
-63 30 -30 25 20 -2 37 -3 37 -1 0 2 -11 20 -24 39 -13 19 -33 71 -45 115 -12
45 -40 128 -61 186 -22 58 -40 112 -40 120 0 18 107 53 166 54 30 1 46 -5 62
-21z m-234 -100 c13 -46 36 -123 50 -173 14 -49 30 -104 35 -121 16 -56 4 -58
-120 -18 -104 34 -120 36 -191 30 -61 -5 -84 -3 -112 11 -20 9 -36 20 -36 23
0 14 109 196 138 231 33 39 110 69 123 47 4 -6 9 -2 13 10 6 17 40 38 68 41 4
1 18 -36 32 -81z m-117 -417 c87 -27 222 -76 300 -110 134 -58 146 -61 221
-61 86 0 103 5 261 74 58 26 150 60 205 77 232 70 238 71 249 60 14 -14 -19
-332 -36 -343 -33 -20 -307 -98 -347 -98 -19 0 -51 26 -125 100 l-100 100
-100 0 -100 0 -105 -100 c-75 -71 -112 -99 -130 -100 -40 0 -304 77 -339 99
-10 7 -19 54 -30 163 -14 148 -13 188 8 188 5 0 81 -22 168 -49z m45 -481 c73
-30 111 -60 167 -130 l19 -25 -10 46 c-13 57 -5 94 28 124 19 18 31 22 47 16
12 -4 29 -7 37 -6 8 0 17 -2 20 -6 3 -4 12 -9 20 -11 41 -9 43 -22 32 -178
-17 -232 -38 -254 -152 -160 -56 45 -175 130 -184 130 -3 0 5 -24 20 -52 24
-50 17 -44 -118 97 -205 213 -215 226 -223 268 l-7 37 113 -59 c63 -32 149
-73 191 -91z m1253 80 c-15 -29 -340 -380 -352 -380 -6 0 -5 2 47 69 25 32 28
41 14 33 -11 -6 8 19 43 56 71 73 125 150 117 163 -11 18 -77 8 -137 -21 l-62
-31 30 28 c17 16 70 43 120 61 50 18 113 46 140 62 46 27 50 28 53 10 2 -10
-4 -33 -13 -50z m-1321 -333 l28 -40 -38 24 -38 23 26 -34 c14 -19 35 -54 47
-76 18 -38 207 -225 249 -248 9 -5 57 -42 105 -83 l88 -73 88 0 c110 0 117 5
211 147 69 105 93 128 45 44 -14 -23 -25 -45 -25 -47 0 -13 85 43 150 98 78
67 115 111 167 203 l32 57 -26 -18 -27 -17 21 32 c26 43 135 171 144 171 32 0
-128 -312 -230 -450 -75 -100 -173 -215 -203 -236 -78 -54 -420 -59 -510 -6
-41 24 -186 196 -266 317 -83 126 -182 317 -182 353 0 25 4 23 57 -37 32 -36
71 -82 87 -104z m-146 48 c17 -38 15 -333 -2 -364 -22 -40 8 -131 110 -332 92
-182 202 -341 328 -478 37 -41 38 -41 -143 76 -380 248 -571 427 -684 641 -39
74 -87 217 -87 258 0 50 167 147 340 198 109 32 124 32 138 1z m1574 -16 c92
-30 220 -90 252 -118 44 -39 47 -61 20 -162 -80 -300 -316 -539 -884 -894
l-45 -28 50 55 c135 148 223 277 318 465 99 196 140 328 107 348 -6 4 -10 69
-10 161 0 190 9 218 68 208 20 -3 76 -19 124 -35z m-2154 -333 c-49 -43 -64
-80 -88 -228 -22 -135 -25 -178 -11 -178 11 0 123 -66 170 -99 30 -22 70 -88
71 -117 0 -7 -7 -14 -15 -18 -10 -3 -20 8 -34 38 -14 34 -36 56 -91 95 -40 28
-88 56 -106 63 l-34 12 0 73 c0 83 21 196 53 293 20 59 27 67 66 87 58 29 66
20 19 -21z m2589 14 c25 -15 36 -32 52 -84 30 -97 51 -220 51 -295 l-1 -66
-47 -22 c-90 -42 -160 -102 -179 -152 -21 -59 -27 -65 -43 -46 -10 12 -10 23
4 60 22 57 59 92 154 145 42 24 79 45 81 46 6 5 -20 209 -35 269 -20 78 -36
106 -73 130 -17 11 -31 23 -31 28 0 13 35 7 67 -13z m-777 -82 c-23 -132 -55
-196 -167 -324 -34 -40 -60 -74 -57 -76 2 -3 -19 -15 -46 -28 -27 -13 -53 -20
-57 -17 -3 4 1 7 10 7 9 0 18 4 21 9 4 5 -3 7 -14 4 -15 -4 -20 0 -20 15 0 12
5 24 10 27 13 8 3 25 -13 25 -7 0 -6 -4 3 -10 8 -5 13 -10 10 -11 -3 0 -16 -3
-30 -5 -23 -4 -23 -3 9 23 164 133 341 355 341 429 0 10 3 15 6 11 3 -3 0 -39
-6 -79z m659 -194 l1 -131 -39 -11 c-21 -7 -80 -45 -131 -85 -132 -104 -184
-137 -192 -123 -5 7 -8 5 -8 -5 0 -9 -8 -23 -17 -30 -15 -11 -16 -11 -5 1 13
15 17 50 4 50 -4 0 -8 10 -8 21 0 14 22 40 61 73 72 61 187 182 238 249 20 26
43 70 51 98 33 109 44 83 45 -107z m-2697 -249 c-7 -23 -26 -37 -112 -82 -234
-121 -278 -144 -340 -178 -89 -49 -42 -11 115 92 123 82 336 206 342 200 1 -2
-1 -16 -5 -32z m3112 -27 c111 -64 215 -129 321 -203 123 -85 168 -127 60 -55
-51 33 -131 78 -320 175 -82 43 -151 78 -152 79 -6 4 -14 56 -8 56 4 0 49 -23
99 -52z m-2969 -113 c3 -11 9 -40 14 -65 19 -88 181 -521 222 -593 6 -11 8
-21 5 -24 -8 -8 -133 249 -180 370 -24 62 -54 152 -66 201 -14 52 -34 101 -48
118 -13 16 -21 35 -18 44 5 12 10 11 36 -8 17 -12 33 -31 35 -43z m2795 48 c0
-9 -9 -27 -20 -38 -12 -12 -34 -69 -50 -126 -16 -57 -43 -140 -60 -184 -34
-89 -152 -337 -157 -331 -2 2 19 61 48 132 76 191 134 359 153 444 13 57 24
80 44 97 33 27 42 28 42 6z"/>
</g>
</svg>
