<?xml version="1.0" standalone="no"?>
<!DOCTYPE svg PUBLIC "-//W3C//DTD SVG 20010904//EN"
 "http://www.w3.org/TR/2001/REC-SVG-20010904/DTD/svg10.dtd">
<svg version="1.0" xmlns="http://www.w3.org/2000/svg"
 width="1188.000000pt" height="687.000000pt" viewBox="0 0 1188.000000 687.000000"
 preserveAspectRatio="xMidYMid meet">
<metadata>
Created by potrace 1.16, written by Peter Selinger 2001-2019
</metadata>
<g transform="translate(0.000000,687.000000) scale(0.100000,-0.100000)"
fill="#000000" stroke="none">
<path d="M5900 3545 l0 -3125 -2673 2 -2672 3 -67 33 c-43 21 -83 51 -113 84
-49 55 -63 59 -39 13 8 -16 12 -34 10 -42 -3 -7 0 -16 7 -20 7 -5 23 -24 37
-44 58 -84 148 -135 287 -161 55 -11 1052 -13 5233 -13 4951 0 5168 1 5249 18
84 18 141 42 193 80 35 26 99 119 121 175 15 41 15 43 -1 38 -15 -5 -15 -5 -1
6 9 7 17 18 18 23 0 6 9 33 19 60 16 47 17 212 17 2875 l0 2825 -23 56 c-43
107 -143 194 -257 224 -53 13 -347 15 -2702 15 l-2643 0 0 -3125z m1419 821
c28 -15 56 -61 46 -77 -10 -16 -53 -10 -67 9 -47 65 -128 5 -112 -82 6 -36 22
-66 34 -66 4 0 15 -3 24 -6 10 -4 27 5 45 25 24 25 35 30 55 25 33 -8 34 -34
3 -70 -30 -35 -116 -45 -165 -20 -86 44 -89 215 -4 260 35 19 105 20 141 2z
m1807 -4 c27 -21 47 -59 39 -72 -10 -17 -53 -11 -67 8 -30 42 -89 33 -106 -16
-10 -30 -1 -107 14 -122 27 -24 55 -21 84 10 23 24 34 29 54 24 34 -8 33 -34
-3 -73 -25 -27 -36 -31 -81 -31 -96 0 -143 46 -144 140 0 64 22 113 62 134 38
21 122 20 148 -2z m383 -127 l0 -145 -35 0 -34 0 0 145 0 145 34 0 35 0 0
-145z m571 0 l0 -145 -30 0 -30 0 0 145 0 145 30 0 30 0 0 -145z m451 116 c39
-39 37 -63 -11 -115 -22 -24 -40 -48 -40 -55 0 -6 -13 -11 -30 -11 -26 0 -30
4 -30 26 0 17 12 37 35 58 40 37 44 60 15 76 -21 11 -60 -2 -60 -20 0 -6 -16
-10 -35 -10 -43 0 -44 12 -6 51 25 25 37 29 81 29 44 0 56 -4 81 -29z m-2939
-80 c29 -26 33 -35 32 -77 -1 -40 -6 -52 -33 -76 -55 -49 -146 -35 -176 27
-18 39 -19 52 -4 94 23 65 124 83 181 32z m243 20 c6 0 31 2 56 5 65 8 79 -13
79 -123 l0 -83 -35 0 -35 0 0 79 c0 84 -10 105 -38 77 -11 -11 -16 -35 -16
-86 l-1 -70 -32 0 -33 0 0 74 c0 82 -15 110 -44 81 -12 -12 -16 -35 -16 -86
l0 -69 -35 0 -35 0 0 105 0 105 88 -4 c48 -3 92 -5 97 -5z m357 -20 c28 -25
33 -36 33 -76 0 -40 -5 -51 -33 -76 -59 -53 -159 -33 -182 36 -37 112 94 195
182 116z m337 7 c11 -11 18 -25 15 -30 -7 -11 -51 -10 -74 2 -20 10 -50 4 -50
-11 0 -5 25 -16 55 -24 81 -24 104 -73 52 -110 -33 -23 -119 -19 -151 6 -14
11 -24 25 -21 30 8 12 52 11 76 -2 20 -10 59 -4 59 10 0 5 -21 14 -47 21 -59
14 -83 35 -83 71 0 39 33 59 97 59 41 0 57 -5 72 -22z m225 -9 c15 -18 26 -43
26 -60 l0 -29 -71 0 -71 0 15 -22 c9 -13 23 -22 34 -20 66 12 81 13 87 4 13
-21 -45 -52 -96 -52 -65 0 -98 32 -98 97 0 79 30 112 102 113 40 0 50 -4 72
-31z m618 14 c11 -12 17 -46 20 -104 l4 -87 -80 0 c-91 0 -116 12 -116 58 0
35 13 45 73 61 34 8 47 16 45 27 -4 22 -23 25 -41 7 -9 -8 -27 -15 -41 -15
-33 0 -35 32 -4 54 32 22 120 21 140 -1z m344 -8 c14 -14 22 -30 19 -35 -9
-15 -54 -12 -71 5 -28 27 -52 12 -60 -37 -5 -28 -2 -40 15 -57 22 -22 51 -19
51 6 0 10 9 13 32 11 41 -4 46 -21 14 -53 -20 -20 -35 -25 -75 -25 -43 0 -53
4 -75 31 -40 47 -34 130 13 166 9 7 38 13 64 13 38 0 53 -5 73 -25z m124 -54
c0 -60 3 -80 15 -85 29 -11 45 22 45 95 l0 69 35 0 35 0 0 -104 0 -105 -85 0
c-108 0 -115 8 -115 126 l0 83 35 0 35 0 0 -79z m444 63 c9 -8 16 -16 17 -17
0 -1 4 -41 7 -89 l7 -88 -32 0 c-19 0 -33 5 -33 12 0 9 -3 9 -12 0 -7 -7 -31
-12 -54 -12 -45 0 -74 24 -74 61 0 25 43 55 90 63 24 4 40 12 40 20 0 22 -31
28 -51 10 -19 -17 -60 -16 -66 3 -2 6 6 21 18 32 29 26 119 30 143 5z m-3274
-96 c-5 -18 -23 -45 -40 -59 -35 -30 -38 -54 -9 -70 18 -9 27 -7 50 10 30 22
79 28 79 10 0 -6 -13 -24 -29 -40 -25 -24 -38 -29 -80 -29 -102 0 -141 82 -68
145 21 18 37 40 37 49 0 12 9 16 34 16 34 0 34 0 26 -32z m14 -510 c9 -12 16
-36 16 -53 0 -53 -24 -75 -81 -75 l-49 0 0 75 0 75 49 0 c40 0 53 -4 65 -22z
m2431 -5 c5 -13 12 -23 15 -23 3 0 10 10 15 23 14 32 65 31 83 -3 14 -28 10
-84 -9 -106 -19 -23 -57 -17 -75 11 l-17 26 -11 -23 c-27 -55 -96 -21 -96 47
0 67 71 103 95 48z m-1067 -30 c2 -9 -5 -11 -27 -7 -41 8 -40 -2 2 -19 31 -13
33 -12 49 15 29 47 98 32 98 -21 0 -6 -18 -11 -40 -11 -22 0 -40 -5 -40 -10 0
-16 30 -24 43 -11 6 6 17 11 24 11 11 0 11 -5 3 -20 -13 -24 -62 -27 -83 -5
-13 13 -16 13 -27 0 -18 -22 -67 -19 -80 5 -8 16 -8 20 4 20 8 0 18 -4 21 -10
7 -12 35 -14 35 -2 0 4 -13 13 -30 19 -29 11 -40 39 -23 57 11 11 66 2 71 -11z
m531 0 c10 -17 10 -17 11 0 0 9 7 17 15 17 11 0 15 -12 15 -46 0 -38 3 -45 18
-42 12 2 18 15 20 46 2 28 8 42 18 42 10 0 14 -14 14 -55 l0 -55 -38 0 c-21 0
-43 5 -50 12 -9 9 -15 9 -24 0 -7 -7 -24 -12 -38 -12 -34 0 -50 17 -50 55 0
17 5 36 12 43 18 18 65 15 77 -5z m809 1 c8 -14 10 -14 21 0 23 27 91 15 91
-16 0 -13 -28 -9 -32 4 -7 21 -38 0 -38 -27 0 -27 31 -48 38 -27 4 13 32 17
32 4 0 -29 -65 -43 -88 -20 -9 9 -15 9 -24 0 -7 -7 -24 -12 -38 -12 -34 0 -50
17 -50 55 0 17 5 36 12 43 17 17 65 15 76 -4z m600 0 c8 -14 10 -14 21 0 18
21 77 21 85 0 3 -9 6 -33 6 -55 l0 -39 -44 0 c-25 0 -48 5 -52 11 -4 8 -9 8
-17 0 -15 -15 -60 -14 -75 1 -7 7 -12 26 -12 43 0 17 5 36 12 43 17 17 65 15
76 -4z m-2368 -184 c0 -5 -13 -10 -30 -10 -20 0 -30 -5 -30 -15 0 -8 9 -15 19
-15 11 0 27 -10 35 -22 l16 -22 0 25 c0 71 71 93 101 30 12 -26 17 -30 22 -17
8 21 60 21 78 0 11 -14 13 -14 21 0 16 28 88 15 88 -16 0 -13 -28 -9 -32 4 -7
21 -38 0 -38 -27 0 -27 31 -48 38 -27 4 13 32 17 32 4 0 -31 -72 -44 -88 -16
-8 14 -10 14 -21 0 -22 -26 -69 -20 -83 9 l-11 25 -11 -23 c-17 -33 -61 -35
-82 -2 l-17 26 -11 -23 c-14 -29 -67 -36 -86 -13 -9 11 -10 19 -3 26 7 7 14 5
23 -6 25 -30 58 -7 43 31 -4 12 -14 14 -40 9 -33 -6 -33 -5 -27 22 3 15 7 34
10 41 4 14 84 17 84 2z m472 -49 c12 -20 12 -20 26 0 15 22 64 26 81 5 19 -23
21 -52 4 -75 -20 -29 -73 -25 -88 6 l-11 21 -9 -21 c-6 -13 -21 -23 -37 -25
-20 -2 -28 -9 -28 -23 0 -10 -7 -19 -15 -19 -12 0 -15 15 -15 75 l0 75 40 0
c29 0 43 -5 52 -19z m-1202 -190 c0 -14 8 -21 28 -23 20 -2 29 -11 37 -34 8
-26 12 -29 23 -18 7 8 24 14 38 14 15 0 23 4 19 11 -4 6 -19 7 -37 4 -23 -6
-29 -4 -26 6 6 19 77 24 82 7 3 -7 7 -32 9 -55 l5 -43 -48 0 c-36 0 -49 4 -55
18 -6 16 -7 16 -16 0 -7 -13 -22 -18 -49 -18 l-40 0 0 75 c0 60 3 75 15 75 8
0 15 -9 15 -19z m1100 -1 c0 -15 7 -20 25 -20 26 0 47 -32 38 -57 -7 -18 5
-16 23 2 9 8 27 15 40 15 15 0 23 4 19 11 -4 6 -19 7 -37 4 -23 -6 -29 -4 -26
6 6 19 77 24 82 7 3 -7 7 -32 9 -55 l5 -43 -42 0 c-23 0 -47 5 -54 12 -9 9
-12 9 -12 0 0 -7 -6 -12 -14 -12 -10 0 -16 14 -18 42 -2 31 -8 44 -20 46 -15
3 -18 -4 -18 -42 0 -34 -4 -46 -15 -46 -12 0 -15 15 -15 75 0 60 3 75 15 75 8
0 15 -9 15 -20z m-1306 -232 c9 -12 16 -36 16 -53 0 -53 -24 -75 -81 -75 l-49
0 0 75 0 75 49 0 c40 0 53 -4 65 -22z m1844 -35 c2 -9 -6 -11 -30 -7 -37 7
-30 -5 14 -24 24 -10 28 -9 34 11 9 28 22 37 56 37 17 0 31 -7 38 -19 17 -33
11 -41 -30 -41 -22 0 -40 -5 -40 -10 0 -16 30 -24 43 -11 6 6 17 11 24 11 11
0 11 -5 3 -20 -17 -31 -90 -25 -90 8 0 13 -4 11 -16 -6 -18 -26 -65 -30 -84
-7 -17 21 -4 32 20 17 22 -14 40 -16 40 -4 0 4 -13 13 -30 19 -29 11 -40 39
-23 57 11 11 66 2 71 -11z m1150 1 c8 -14 10 -14 21 0 19 23 68 20 81 -4 8
-16 8 -20 -4 -20 -8 0 -16 5 -18 12 -7 21 -38 0 -38 -27 0 -27 31 -48 38 -27
4 13 32 17 32 4 0 -29 -65 -43 -88 -20 -9 9 -15 9 -24 0 -7 -7 -24 -12 -38
-12 -34 0 -50 17 -50 55 0 17 5 36 12 43 17 17 65 15 76 -4z m261 -1 c9 -17
10 -17 28 0 26 23 70 22 83 -2 14 -26 13 -64 -2 -79 -18 -18 -69 -15 -84 6
-13 16 -15 16 -25 0 -5 -10 -21 -18 -34 -18 -18 0 -25 -5 -25 -20 0 -11 -7
-20 -15 -20 -12 0 -15 15 -15 75 l0 75 40 0 c27 0 42 -5 49 -17z m338 2 c5
-14 7 -14 23 0 11 10 31 15 52 13 32 -3 33 -4 36 -55 l3 -53 -45 0 c-25 0 -48
5 -52 11 -4 8 -9 8 -17 0 -15 -15 -60 -14 -75 1 -7 7 -12 26 -12 43 0 17 5 36
12 43 17 17 67 15 75 -3z"/>
<path d="M1430 4575 l0 -145 25 0 c24 0 25 2 25 65 l0 65 63 0 62 0 -3 -66 -4
-65 27 3 27 3 0 95 c0 196 1 190 -27 190 -24 0 -25 -3 -25 -55 l0 -55 -60 0
-60 0 0 55 c0 52 -1 55 -25 55 l-25 0 0 -145z"/>
<path d="M1963 4681 c5 -54 -3 -65 -36 -50 -85 39 -149 -101 -78 -172 33 -32
65 -37 99 -13 20 14 22 14 22 0 0 -9 9 -16 20 -16 20 0 22 20 22 240 0 45 -2
50 -27 50 -24 0 -26 -3 -22 -39z"/>
<path d="M3740 4575 l0 -145 85 0 c94 0 128 11 144 47 17 38 13 60 -15 82 -24
19 -25 22 -10 36 28 29 24 72 -10 103 -22 19 -36 22 -110 22 l-84 0 0 -145z"/>
<path d="M2478 4689 c-10 -5 -18 -19 -18 -29 0 -11 -7 -20 -15 -20 -8 0 -15
-9 -15 -20 0 -11 7 -20 15 -20 12 0 15 -15 15 -75 0 -65 3 -76 21 -85 25 -14
61 -9 67 8 2 7 -5 16 -17 19 -19 5 -21 13 -21 69 0 48 4 64 14 64 7 0 16 9 19
20 4 15 0 20 -14 20 -14 0 -19 7 -19 30 0 32 -5 35 -32 19z"/>
<path d="M2263 4630 c-12 -5 -26 -18 -32 -28 -9 -16 -7 -21 11 -25 13 -4 26 0
33 9 16 22 60 14 60 -10 0 -14 -12 -22 -49 -31 -61 -16 -78 -36 -64 -75 12
-36 55 -48 98 -27 26 13 30 13 30 1 0 -8 10 -14 23 -14 21 0 22 2 19 87 -2 54
-9 93 -16 101 -17 17 -84 25 -113 12z"/>
<path d="M2615 4628 c-38 -22 -44 -43 -14 -51 12 -3 22 0 26 9 8 22 60 18 66
-6 4 -16 -2 -22 -31 -30 -21 -5 -42 -10 -48 -10 -20 0 -46 -38 -42 -61 2 -13
15 -30 30 -38 23 -13 32 -14 64 -2 28 10 39 11 42 2 2 -6 13 -11 25 -11 21 0
22 3 17 86 -4 75 -8 88 -29 105 -26 21 -75 24 -106 7z"/>
<path d="M2830 4613 c-29 -26 -33 -36 -32 -79 0 -42 5 -53 33 -77 27 -25 38
-28 71 -24 22 3 48 13 59 23 20 18 26 44 10 44 -5 0 -16 3 -24 6 -9 3 -16 -3
-20 -15 -6 -24 -45 -29 -65 -9 -16 16 -16 90 0 106 17 17 55 15 65 -3 8 -14
53 -11 53 5 0 17 -41 42 -78 47 -33 4 -44 1 -72 -24z"/>
<path d="M3185 4627 c-77 -35 -71 -160 10 -187 76 -25 140 19 140 96 0 33 -6
49 -26 69 -30 31 -83 40 -124 22z"/>
<path d="M3390 4535 l0 -105 25 0 c24 0 25 2 25 73 0 78 9 97 46 97 28 0 34
-17 34 -101 0 -67 1 -69 25 -69 25 0 25 1 25 85 0 72 -3 88 -20 105 -24 24
-57 26 -87 5 -19 -13 -22 -13 -27 0 -3 8 -15 15 -26 15 -19 0 -20 -6 -20 -105z"/>
<path d="M4063 4630 c-12 -5 -26 -18 -32 -28 -9 -16 -7 -21 11 -25 13 -4 26 0
33 9 16 22 60 14 60 -10 0 -14 -12 -22 -49 -31 -49 -13 -76 -35 -72 -58 11
-50 55 -69 106 -44 26 13 30 13 30 1 0 -8 10 -14 23 -14 21 0 22 2 19 87 -2
54 -9 93 -16 101 -17 17 -84 25 -113 12z"/>
<path d="M4272 4628 c-26 -13 -39 -54 -25 -77 6 -9 34 -23 64 -32 31 -10 54
-22 54 -30 0 -17 -47 -24 -72 -11 -10 5 -29 6 -41 3 l-24 -6 22 -20 c16 -15
36 -20 75 -20 63 0 98 24 93 64 -3 22 -12 29 -65 46 -47 14 -63 24 -63 37 0
14 8 18 34 18 19 0 37 -4 40 -9 8 -13 48 -1 43 13 -10 31 -90 45 -135 24z"/>
<path d="M4505 4628 c-38 -22 -44 -43 -14 -51 12 -3 22 0 26 9 3 8 18 14 35
14 25 0 29 -4 26 -22 -2 -17 -13 -25 -44 -33 -23 -5 -49 -16 -58 -24 -25 -21
-16 -62 16 -80 23 -13 32 -14 64 -2 28 10 39 11 42 2 2 -6 13 -11 25 -11 21 0
22 3 17 86 -4 75 -8 88 -29 105 -26 21 -75 24 -106 7z"/>
<path d="M2155 3001 c-155 -38 -244 -188 -200 -338 13 -45 28 -69 68 -109 89
-89 29 -84 1062 -84 1021 0 970 -4 1056 77 29 27 55 63 66 91 22 57 22 153 0
203 -22 53 -80 113 -135 141 l-47 23 -920 2 c-506 0 -933 -2 -950 -6z"/>
</g>
</svg>
