<?xml version="1.0" standalone="no"?>
<!DOCTYPE svg PUBLIC "-//W3C//DTD SVG 20010904//EN"
 "http://www.w3.org/TR/2001/REC-SVG-20010904/DTD/svg10.dtd">
<svg version="1.0" xmlns="http://www.w3.org/2000/svg"
 width="500.000000pt" height="500.000000pt" viewBox="0 0 500.000000 500.000000"
 preserveAspectRatio="xMidYMid meet">

<g transform="translate(0.000000,500.000000) scale(0.100000,-0.100000)"
fill="#000000" stroke="none">
<path d="M2577 3443 c-3 -10 -19 -61 -35 -113 -17 -52 -64 -203 -105 -335 -42
-132 -100 -319 -130 -415 -31 -96 -63 -200 -72 -230 -10 -30 -30 -95 -45 -145
-32 -102 -112 -357 -142 -455 -11 -36 -29 -92 -39 -124 -11 -33 -19 -65 -19
-73 0 -10 41 -13 210 -13 196 0 210 1 220 19 5 11 62 187 126 393 63 205 140
452 171 548 30 96 65 209 78 250 12 41 66 213 119 381 53 168 96 311 96 317 0
9 -58 12 -214 12 -195 0 -214 -2 -219 -17z"/>
<path d="M1835 3253 c-17 -9 -32 -19 -35 -22 -3 -3 -9 -7 -15 -8 -5 -1 -84
-43 -175 -93 -91 -51 -194 -108 -230 -127 -74 -40 -185 -102 -215 -120 -11 -6
-45 -24 -75 -40 -30 -15 -59 -31 -65 -36 -11 -8 -110 -62 -182 -99 l-43 -22 0
-183 c0 -101 4 -183 9 -183 4 0 24 -11 43 -24 30 -20 251 -141 528 -289 41
-22 104 -57 140 -77 93 -54 312 -164 332 -167 19 -3 33 13 20 21 -5 3 -6 25
-2 48 3 24 7 107 9 184 l3 142 -59 32 c-32 18 -71 39 -88 48 -28 14 -124 67
-377 209 -54 30 -98 58 -98 62 0 6 65 44 218 128 24 13 69 38 100 55 31 18
111 62 177 98 l120 65 0 204 c0 111 -2 204 -5 206 -3 2 -19 -4 -35 -12z m25
-1473 c8 -5 11 -10 5 -10 -5 0 -17 5 -25 10 -8 5 -10 10 -5 10 6 0 17 -5 25
-10z"/>
<path d="M3142 3243 c-11 -20 -22 -377 -12 -391 3 -5 109 -65 235 -134 331
-181 370 -204 370 -218 0 -6 -38 -32 -85 -57 -47 -25 -88 -50 -91 -55 -3 -5
-9 -9 -13 -9 -16 2 -74 -33 -69 -42 3 -6 1 -7 -6 -3 -6 4 -26 -1 -44 -12 -17
-11 -57 -33 -87 -49 -30 -17 -90 -49 -132 -73 l-78 -42 -2 -161 c-1 -89 -2
-180 -3 -202 -1 -22 0 -43 2 -47 4 -8 51 16 378 197 121 67 252 139 290 160
195 107 334 182 368 200 l37 20 0 176 0 177 -32 24 c-18 14 -58 38 -88 55
-136 74 -634 344 -715 388 -49 26 -94 51 -99 55 -5 5 -15 6 -24 3 -9 -4 -13
-2 -9 4 5 7 -8 16 -30 24 -21 6 -41 16 -44 22 -4 5 -12 1 -17 -10z"/>
</g>
</svg>
