<?xml version="1.0" standalone="no"?>
<!DOCTYPE svg PUBLIC "-//W3C//DTD SVG 20010904//EN"
 "http://www.w3.org/TR/2001/REC-SVG-20010904/DTD/svg10.dtd">
<svg version="1.0" xmlns="http://www.w3.org/2000/svg"
 width="225.000000pt" height="225.000000pt" viewBox="0 0 225.000000 225.000000"
 preserveAspectRatio="xMidYMid meet">
<metadata>
Created by potrace 1.16, written by Peter Selinger 2001-2019
</metadata>
<g transform="translate(0.000000,225.000000) scale(0.100000,-0.100000)"
fill="#000000" stroke="none">
<path d="M0 1785 l0 -465 80 0 c47 0 80 4 80 10 0 6 12 10 28 10 15 0 37 7 49
15 20 14 22 14 18 -4 -3 -15 1 -18 13 -14 12 4 11 0 -5 -16 -30 -29 -29 -35 7
-27 17 3 30 2 30 -3 0 -5 8 -12 17 -15 16 -6 16 -5 0 12 -17 19 -17 20 5 27
41 13 48 13 48 3 0 -6 -6 -8 -14 -5 -8 3 -17 0 -20 -8 -3 -10 0 -12 11 -8 14
5 13 3 -1 -19 -9 -14 -27 -29 -39 -33 l-22 -8 22 -4 c13 -2 35 4 52 16 15 11
32 17 36 13 5 -4 6 -2 3 3 -5 11 21 38 40 42 7 2 12 -6 12 -17 0 -32 -26 -75
-61 -103 -26 -20 -28 -25 -14 -30 9 -4 14 -3 10 3 -5 9 12 13 50 13 6 0 19 9
30 20 20 20 17 20 -29 1 -18 -7 -18 -6 -2 18 9 14 20 48 25 76 7 43 4 56 -20
103 -16 30 -28 50 -29 46 0 -5 5 -17 11 -29 21 -40 20 -66 -7 -97 -14 -17 -34
-36 -45 -41 -17 -10 -17 -9 1 32 18 43 39 149 26 137 -4 -4 -17 -26 -29 -50
-20 -40 -83 -96 -95 -84 -3 3 4 15 16 28 33 35 52 91 52 154 0 86 -13 96 -39
32 l-22 -54 5 48 c6 47 5 47 -17 33 -12 -8 -41 -20 -64 -27 -23 -6 -40 -16
-37 -20 3 -5 -2 -6 -11 -2 -14 5 -11 11 16 32 44 34 75 67 108 116 l27 40 -46
-22 c-49 -24 -170 -50 -136 -29 57 34 99 70 116 98 24 39 16 62 -19 54 l-26
-6 28 17 c27 18 33 44 30 135 -1 16 3 25 8 22 5 -3 9 1 9 8 0 7 15 50 34 96
18 45 32 82 31 82 -11 0 -55 -82 -49 -91 4 -8 3 -10 -4 -5 -13 8 -46 -50 -37
-65 4 -5 1 -8 -5 -7 -7 2 -23 -24 -36 -57 l-24 -60 7 50 c4 28 7 60 8 73 0 12
3 22 6 22 12 0 31 59 23 71 -4 7 -3 10 2 6 5 -3 26 21 45 52 l36 58 -41 -22
c-51 -28 -110 -37 -169 -26 -32 6 -48 5 -51 -3 -2 -6 -5 -3 -5 7 -1 15 6 18
47 16 65 -3 91 7 85 31 -3 11 0 20 6 20 6 0 11 -7 11 -16 0 -11 5 -14 16 -10
9 3 20 6 25 6 6 0 8 4 5 9 -3 5 1 12 10 15 10 4 13 2 8 -7 -4 -6 2 -3 14 7 12
11 22 23 22 28 0 4 -65 8 -145 8 l-145 0 0 -465z"/>
<path d="M2120 1751 c10 -20 21 -52 24 -71 6 -31 2 -27 -25 25 l-31 59 -29
-99 c-29 -102 -38 -171 -19 -160 6 4 23 -7 39 -24 104 -112 42 -412 -132 -639
-89 -115 -273 -271 -358 -303 -89 -34 -105 -26 -159 80 l-22 44 33 -7 c47 -9
78 -32 94 -69 8 -18 14 -26 15 -19 0 7 -7 27 -16 44 -9 16 -12 28 -7 25 5 -3
15 -2 23 3 12 8 12 15 -3 47 -16 35 -8 30 20 -14 11 -16 12 -15 12 10 1 15 6
27 13 27 6 0 9 3 5 6 -3 4 0 19 8 34 8 15 16 46 17 68 2 22 7 38 12 35 4 -3 5
4 2 15 -4 12 -1 26 9 35 8 9 15 30 15 47 0 18 4 29 10 25 13 -8 13 5 0 25 -9
13 -10 13 -10 0 0 -13 -1 -13 -10 0 -5 8 -10 20 -10 25 0 6 5 3 10 -5 7 -11
10 -12 10 -2 0 10 4 9 16 -3 20 -20 25 -15 26 24 1 17 5 28 10 25 4 -3 8 2 8
10 0 36 18 12 34 -45 9 -34 19 -59 22 -57 2 3 -5 34 -16 69 -11 35 -20 69 -20
74 0 6 23 35 50 65 28 30 50 59 50 64 0 5 11 24 25 42 14 18 25 40 25 48 0 31
50 10 63 -26 2 -7 8 -9 13 -5 9 8 -32 51 -56 59 -8 2 -7 16 5 46 10 24 16 45
13 47 -2 3 -12 -17 -21 -43 -10 -27 -36 -70 -59 -98 -22 -27 -53 -68 -69 -91
-18 -26 -41 -46 -62 -53 -30 -9 -39 -22 -72 -93 -21 -45 -53 -113 -72 -151
-22 -45 -27 -64 -16 -55 15 12 16 12 8 -1 -5 -8 -19 -23 -32 -33 -13 -10 -23
-25 -23 -32 0 -9 -6 -12 -17 -8 -13 5 -15 2 -11 -15 6 -22 -13 -27 -22 -6 -3
8 -30 -3 -75 -29 -85 -49 -359 -177 -380 -177 -32 0 -63 25 -103 83 -24 34
-63 85 -88 112 -92 100 -126 153 -160 252 -19 54 -32 86 -29 72 4 -25 2 -26
-60 -38 -36 -6 -109 -16 -163 -21 -112 -10 -186 -32 -220 -63 -22 -21 -24 -21
-53 -4 -42 24 -76 21 -104 -8 -36 -35 -32 -52 18 -63 23 -5 51 -13 62 -16 13
-5 12 -2 -5 8 -14 8 -33 15 -42 16 -27 0 -21 19 10 31 45 18 100 12 149 -16
25 -14 48 -23 50 -21 3 2 -8 12 -24 20 -28 16 -28 16 22 10 58 -6 165 -42 165
-55 0 -5 5 -9 10 -9 6 0 10 5 10 11 0 15 -79 48 -147 61 -32 6 -62 14 -67 19
-11 10 -38 0 -30 -12 3 -5 -2 -6 -10 -3 -12 5 -13 9 -3 19 7 7 14 11 16 9 2
-1 10 3 18 11 20 21 77 34 191 45 54 5 119 14 143 19 65 15 76 14 83 -13 5
-21 -7 -37 -77 -108 -45 -46 -101 -113 -125 -149 -36 -55 -46 -65 -66 -62 -25
5 -128 -61 -179 -115 l-28 -29 33 -13 c18 -7 66 -38 107 -68 40 -30 97 -65
126 -78 43 -20 61 -36 94 -87 22 -34 59 -80 83 -102 23 -22 32 -27 18 -11
l-25 29 31 -16 c43 -22 48 -31 69 -122 10 -47 20 -73 24 -63 19 52 201 149
291 155 30 1 87 12 125 23 39 11 97 28 130 38 45 12 97 17 205 17 131 -1 153
-3 225 -28 44 -15 95 -36 114 -47 31 -20 32 -22 17 -39 -9 -10 -16 -24 -16
-33 0 -35 -25 -81 -54 -99 -31 -19 -31 -19 227 -19 l257 0 0 859 0 859 -29 7
c-16 3 -49 19 -73 34 l-45 29 17 -37z"/>
<path d="M1772 1633 c22 -25 48 -90 48 -120 l0 -25 -20 23 -19 24 -1 -22 c0
-13 4 -23 10 -23 5 0 14 -10 20 -22 11 -23 11 -23 -6 -3 -16 19 -16 19 -10 -8
5 -22 4 -27 -6 -21 -7 4 -2 -5 12 -20 27 -30 25 -37 -34 -108 -26 -31 -32 -34
-38 -20 -5 14 -7 13 -7 -5 -1 -36 15 -27 68 39 l50 61 -6 64 c-3 35 -3 63 0
63 3 0 15 -10 26 -22 18 -19 21 -20 27 -4 4 9 4 35 1 57 -5 39 -4 41 19 36 13
-2 24 -1 24 3 0 4 -19 11 -42 14 -24 4 -63 18 -88 32 -32 19 -40 20 -28 7z"/>
<path d="M932 1560 c1 -59 2 -61 8 -25 4 22 8 35 9 29 0 -6 20 -40 42 -75 23
-35 40 -66 38 -68 -2 -2 7 -8 21 -14 24 -9 23 -10 -19 -18 -46 -9 -66 -19 -37
-19 14 0 15 -4 6 -20 -6 -11 -14 -20 -18 -20 -8 0 -32 93 -32 123 0 9 -4 17
-10 17 -13 0 -13 -3 10 -89 17 -63 59 -141 76 -141 3 0 -4 12 -15 26 l-21 26
23 28 c12 15 22 27 23 26 1 0 4 -29 8 -64 4 -49 3 -61 -7 -56 -8 5 -7 2 2 -9
15 -19 26 -23 15 -5 -5 8 -2 9 12 3 34 -15 91 -17 114 -5 18 10 19 14 8 27
-10 13 -10 17 0 20 15 6 16 37 1 65 -11 21 -10 21 62 14 40 -3 75 -9 78 -11 7
-8 -22 -56 -54 -88 -22 -23 -24 -27 -8 -19 28 15 36 15 28 0 -4 -7 16 10 44
39 28 28 51 58 51 66 0 9 -20 20 -52 29 l-53 15 0 46 c0 26 -3 47 -7 47 -4 0
-9 8 -11 18 -2 9 -2 -1 0 -23 3 -32 2 -37 -7 -25 -10 12 -11 12 -5 -5 20 -56
21 -55 -36 -48 -96 10 -134 19 -132 30 1 6 -8 14 -20 17 -24 6 -30 38 -13 65
7 11 5 13 -7 8 -10 -4 -20 0 -26 11 -17 28 -12 4 5 -29 8 -17 13 -33 11 -35
-6 -6 -61 81 -86 136 l-21 45 2 -65z"/>
<path d="M441 1563 c-2 -42 86 -280 119 -325 31 -42 7 -34 -26 8 -45 57 -66
80 -58 64 4 -8 13 -23 21 -32 12 -13 12 -20 2 -40 -7 -13 -14 -31 -16 -40 -3
-21 15 -24 23 -4 3 8 13 17 21 20 18 7 46 -12 37 -25 -3 -5 2 -6 10 -3 10 4
18 -1 22 -12 3 -11 10 -28 15 -39 7 -15 7 -11 3 13 -6 33 -5 33 18 22 19 -9
20 -9 6 2 -9 7 -23 18 -32 23 -8 6 -18 22 -21 37 -5 20 -3 26 9 24 8 -1 19 -6
23 -11 5 -4 1 -5 -7 0 -8 5 -12 4 -7 0 4 -5 14 -10 21 -11 10 -1 9 10 -5 47
-22 57 -24 72 -7 67 6 -2 16 -25 23 -51 13 -52 48 -97 76 -97 19 0 33 26 19
35 -6 4 -10 11 -10 17 0 15 30 -12 52 -47 10 -16 18 -25 18 -19 0 6 -13 27
-28 46 -15 20 -36 54 -46 77 -11 23 -21 39 -23 37 -3 -2 1 -15 8 -28 6 -12 8
-20 4 -16 -15 14 -77 116 -113 185 -20 40 -43 73 -49 73 -7 0 -13 -4 -13 -10
0 -5 5 -9 10 -7 6 1 30 -36 55 -81 l45 -84 -43 7 c-23 4 -44 9 -46 11 -2 2 -7
32 -11 66 -7 57 -7 58 -9 18 0 -25 6 -70 14 -100 28 -103 15 -95 -26 17 -17
44 -27 63 -24 43 9 -57 -13 -11 -35 72 -10 40 -19 63 -19 51z"/>
</g>
</svg>
